<svg width="29" height="28" viewBox="0 0 29 28" fill="none" xmlns="http://www.w3.org/2000/svg">
<ellipse cx="14.5" cy="14" rx="14.5" ry="14" fill="#43079A"/>
<ellipse cx="14.5001" cy="14.0001" rx="12.4286" ry="12" fill="#FFFBFB"/>
<path fill-rule="evenodd" clip-rule="evenodd" d="M15.0177 8.71863C14.8718 8.71863 14.7318 8.7746 14.6287 8.87423C14.5255 8.97386 14.4675 9.10898 14.4675 9.24988V13.4999C14.4675 13.6408 14.5255 13.7759 14.6287 13.8755C14.7318 13.9752 14.8718 14.0311 15.0177 14.0311H19.4195C19.5654 14.0311 19.7054 13.9752 19.8086 13.8755C19.9118 13.7759 19.9697 13.6408 19.9697 13.4999C19.9697 13.359 19.9118 13.2239 19.8086 13.1242C19.7054 13.0246 19.5654 12.9686 19.4195 12.9686H15.5679V9.24988C15.5679 9.10898 15.51 8.97386 15.4068 8.87423C15.3036 8.7746 15.1636 8.71863 15.0177 8.71863Z" fill="#43079A"/>
<path fill-rule="evenodd" clip-rule="evenodd" d="M15.5679 13.5001C15.5679 13.3592 15.5099 13.2241 15.4067 13.1245C15.3035 13.0248 15.1636 12.9689 15.0176 12.9689H10.6159C10.4699 12.9689 10.33 13.0248 10.2268 13.1245C10.1236 13.2241 10.0656 13.3592 10.0656 13.5001C10.0656 13.641 10.1236 13.7761 10.2268 13.8758C10.33 13.9754 10.4699 14.0314 10.6159 14.0314H14.4674V17.7501C14.4674 17.891 14.5254 18.0261 14.6286 18.1258C14.7318 18.2254 14.8717 18.2814 15.0176 18.2814C15.1636 18.2814 15.3035 18.2254 15.4067 18.1258C15.5099 18.0261 15.5679 17.891 15.5679 17.7501V13.5001Z" fill="#43079A"/>
</svg>
