<svg width="32" height="32" viewBox="0 0 32 32" fill="none" xmlns="http://www.w3.org/2000/svg">
<circle cx="16" cy="16" r="16" fill="#43079A"/>
<g clip-path="url(#clip0)">
<path d="M23 19.8333V21C23 22.2882 22.5443 23.388 21.6328 24.2995C20.7214 25.2109 19.6215 25.6667 18.3333 25.6667H10.1667C9.83854 25.6667 9.56207 25.5543 9.33724 25.3294C9.11241 25.1046 9 24.8281 9 24.5V8.16667C9 7.85069 9.11241 7.57726 9.33724 7.34635C9.56207 7.11545 9.83854 7 10.1667 7H18.3333C19.6215 7 20.7214 7.45573 21.6328 8.36719C22.5443 9.27865 23 10.3785 23 11.6667V12.8333C23 13.5139 22.8572 14.158 22.5716 14.7656C22.286 15.3733 21.9002 15.8958 21.4141 16.3333C21.9002 16.7708 22.286 17.2934 22.5716 17.901C22.8572 18.5087 23 19.1528 23 19.8333ZM20.6667 11.6667C20.6667 11.0226 20.4388 10.4727 19.9831 10.0169C19.5273 9.5612 18.9774 9.33333 18.3333 9.33333H11.9167C11.7587 9.33333 11.622 9.39106 11.5065 9.50651C11.3911 9.62196 11.3333 9.75868 11.3333 9.91667V14.5833C11.3333 14.7413 11.3911 14.878 11.5065 14.9935C11.622 15.1089 11.7587 15.1667 11.9167 15.1667H18.3333C18.9774 15.1667 19.5273 14.9388 19.9831 14.4831C20.4388 14.0273 20.6667 13.4774 20.6667 12.8333V11.6667ZM20.6667 19.8333C20.6667 19.1892 20.4388 18.6393 19.9831 18.1836C19.5273 17.7279 18.9774 17.5 18.3333 17.5H11.9167C11.7587 17.5 11.622 17.5577 11.5065 17.6732C11.3911 17.7886 11.3333 17.9253 11.3333 18.0833V22.75C11.3333 22.908 11.3911 23.0447 11.5065 23.1602C11.622 23.2756 11.7587 23.3333 11.9167 23.3333H18.3333C18.9774 23.3333 19.5273 23.1055 19.9831 22.6497C20.4388 22.194 20.6667 21.6441 20.6667 21V19.8333Z" fill="white"/>
</g>
<defs>
<clipPath id="clip0">
<rect width="14" height="18.6667" fill="white" transform="translate(9 7)"/>
</clipPath>
</defs>
</svg>
