<svg width="502" height="423" viewBox="0 0 502 423" fill="none" xmlns="http://www.w3.org/2000/svg">
<g clip-path="url(#clip0)">
<g opacity="0.1">
<path opacity="0.1" d="M401.957 299.686C401.957 299.686 366.12 294.387 392.847 360.437C392.847 360.437 417.203 348.551 418.173 321.743C418.37 316.526 416.88 311.407 413.985 307.358C411.09 303.308 406.991 300.608 402.465 299.77L401.957 299.686Z" fill="#BDA9EE"/>
<path opacity="0.1" d="M402.483 299.587C402.483 299.587 410.596 336.416 392.874 360.442" stroke="#535461" stroke-miterlimit="10"/>
<path opacity="0.1" d="M392.389 363.844C392.389 363.844 405.293 327.631 429.388 314.198C439.534 308.637 447.821 299.476 453.003 288.093C455.425 282.671 457.406 277.008 458.92 271.174" stroke="#535461" stroke-width="2" stroke-miterlimit="10"/>
<path opacity="0.1" d="M474.061 262.613C471.549 266.208 458.549 271.471 458.549 271.471C458.549 271.471 460.114 255.839 462.626 252.27C463.199 251.338 463.933 250.55 464.784 249.954C465.635 249.357 466.583 248.965 467.572 248.802C468.561 248.639 469.568 248.708 470.532 249.004C471.497 249.301 472.398 249.819 473.179 250.527C473.961 251.235 474.608 252.118 475.079 253.121C475.55 254.124 475.836 255.226 475.919 256.36C476.002 257.494 475.88 258.635 475.561 259.713C475.243 260.791 474.733 261.783 474.065 262.629L474.061 262.613Z" fill="#BDA9EE"/>
<path opacity="0.1" d="M469.599 291.089C465.774 292.553 452.358 288.911 452.358 288.911C452.358 288.911 461.121 276.781 464.946 275.316C465.872 274.884 466.867 274.673 467.868 274.695C468.869 274.718 469.856 274.975 470.767 275.449C471.677 275.923 472.493 276.605 473.163 277.452C473.833 278.3 474.343 279.295 474.662 280.376C474.981 281.456 475.102 282.6 475.017 283.737C474.932 284.873 474.644 285.977 474.169 286.981C473.695 287.986 473.044 288.868 472.258 289.575C471.472 290.281 470.567 290.797 469.599 291.089Z" fill="#BDA9EE"/>
<path opacity="0.1" d="M445.412 324.755C441.463 323.822 431.493 312.963 431.493 312.963C431.493 312.963 444.433 307.528 448.386 308.461C450.175 309.029 451.708 310.35 452.674 312.156C453.64 313.962 453.967 316.119 453.589 318.189C453.211 320.26 452.156 322.089 450.638 323.307C449.119 324.525 447.252 325.041 445.412 324.749V324.755Z" fill="#BDA9EE"/>
<path opacity="0.1" d="M422.076 345.534C418.045 345.373 406.606 336.593 406.606 336.593C406.606 336.593 418.557 328.735 422.589 328.902C424.437 329.116 426.144 330.122 427.365 331.717C428.586 333.311 429.229 335.375 429.164 337.489C429.099 339.603 428.331 341.61 427.014 343.103C425.698 344.596 423.933 345.463 422.076 345.529V345.534Z" fill="#BDA9EE"/>
<path opacity="0.1" d="M439.867 278.714C440.384 283.273 449.119 295.424 449.119 295.424C449.119 295.424 454.87 281.147 454.358 276.588C454.295 275.45 454.028 274.338 453.572 273.322C453.117 272.306 452.483 271.407 451.711 270.681C450.938 269.955 450.043 269.417 449.081 269.101C448.118 268.785 447.109 268.697 446.116 268.842C445.122 268.988 444.166 269.365 443.305 269.948C442.444 270.532 441.698 271.311 441.112 272.236C440.527 273.161 440.114 274.213 439.899 275.328C439.685 276.442 439.674 277.594 439.867 278.714Z" fill="#BDA9EE"/>
<path opacity="0.1" d="M412.842 303.433C414.531 307.601 426.062 316.225 426.062 316.225C426.062 316.225 427.8 300.64 426.112 296.472C425.752 295.408 425.205 294.439 424.503 293.626C423.802 292.812 422.961 292.172 422.034 291.743C421.106 291.314 420.111 291.106 419.11 291.133C418.109 291.159 417.124 291.419 416.215 291.896C415.306 292.374 414.492 293.058 413.824 293.908C413.157 294.757 412.649 295.754 412.333 296.835C412.017 297.917 411.899 299.061 411.987 300.197C412.074 301.333 412.366 302.436 412.842 303.438V303.433Z" fill="#BDA9EE"/>
<path opacity="0.1" d="M389.47 331.539C390.513 335.978 400.602 346.691 400.602 346.691C400.602 346.691 404.629 331.669 403.581 327.23C403.386 326.11 402.992 325.048 402.422 324.109C401.852 323.17 401.118 322.375 400.267 321.772C399.416 321.169 398.466 320.771 397.474 320.604C396.483 320.436 395.472 320.502 394.503 320.798C393.535 321.093 392.631 321.612 391.846 322.322C391.061 323.032 390.413 323.918 389.941 324.925C389.469 325.932 389.184 327.039 389.103 328.176C389.022 329.314 389.147 330.458 389.47 331.539Z" fill="#BDA9EE"/>
<path opacity="0.25" d="M474.061 262.613C471.549 266.208 458.549 271.471 458.549 271.471C458.549 271.471 460.114 255.839 462.626 252.27C463.199 251.338 463.933 250.55 464.784 249.954C465.635 249.357 466.583 248.965 467.572 248.802C468.561 248.639 469.568 248.708 470.532 249.004C471.497 249.301 472.398 249.819 473.179 250.527C473.961 251.235 474.608 252.118 475.079 253.121C475.55 254.124 475.836 255.226 475.919 256.36C476.002 257.494 475.88 258.635 475.561 259.713C475.243 260.791 474.733 261.783 474.065 262.629L474.061 262.613Z" fill="black"/>
<path opacity="0.25" d="M469.599 291.089C465.774 292.553 452.358 288.911 452.358 288.911C452.358 288.911 461.121 276.781 464.946 275.316C465.872 274.884 466.867 274.673 467.868 274.695C468.869 274.718 469.856 274.975 470.767 275.449C471.677 275.923 472.493 276.605 473.163 277.452C473.833 278.3 474.343 279.295 474.662 280.376C474.981 281.456 475.102 282.6 475.017 283.737C474.932 284.873 474.644 285.977 474.169 286.981C473.695 287.986 473.044 288.868 472.258 289.575C471.472 290.281 470.567 290.797 469.599 291.089Z" fill="black"/>
<path opacity="0.25" d="M445.412 324.755C441.463 323.822 431.493 312.963 431.493 312.963C431.493 312.963 444.433 307.528 448.386 308.461C450.175 309.029 451.708 310.35 452.674 312.156C453.64 313.962 453.967 316.119 453.589 318.189C453.211 320.26 452.156 322.089 450.638 323.307C449.119 324.525 447.252 325.041 445.412 324.749V324.755Z" fill="black"/>
<path opacity="0.25" d="M422.076 345.534C418.045 345.373 406.606 336.593 406.606 336.593C406.606 336.593 418.557 328.735 422.589 328.902C424.437 329.116 426.144 330.122 427.365 331.717C428.586 333.311 429.229 335.375 429.164 337.489C429.099 339.603 428.331 341.61 427.014 343.103C425.698 344.596 423.933 345.463 422.076 345.529V345.534Z" fill="black"/>
<path opacity="0.25" d="M439.867 278.714C440.384 283.273 449.119 295.424 449.119 295.424C449.119 295.424 454.87 281.147 454.358 276.588C454.295 275.45 454.028 274.338 453.572 273.322C453.117 272.306 452.483 271.407 451.711 270.681C450.938 269.955 450.043 269.417 449.081 269.101C448.118 268.785 447.109 268.697 446.116 268.842C445.122 268.988 444.166 269.365 443.305 269.948C442.444 270.532 441.698 271.311 441.112 272.236C440.527 273.161 440.114 274.213 439.899 275.328C439.685 276.442 439.674 277.594 439.867 278.714Z" fill="black"/>
<path opacity="0.25" d="M412.842 303.433C414.531 307.601 426.062 316.225 426.062 316.225C426.062 316.225 427.8 300.64 426.112 296.472C425.752 295.408 425.205 294.439 424.503 293.626C423.802 292.812 422.961 292.172 422.034 291.743C421.106 291.314 420.111 291.106 419.11 291.133C418.109 291.159 417.124 291.419 416.215 291.896C415.306 292.374 414.492 293.058 413.824 293.908C413.157 294.757 412.649 295.754 412.333 296.835C412.017 297.917 411.899 299.061 411.987 300.197C412.074 301.333 412.366 302.436 412.842 303.438V303.433Z" fill="black"/>
<path opacity="0.25" d="M389.47 331.539C390.513 335.978 400.602 346.691 400.602 346.691C400.602 346.691 404.629 331.669 403.581 327.23C403.386 326.11 402.992 325.048 402.422 324.109C401.852 323.17 401.118 322.375 400.267 321.772C399.416 321.169 398.466 320.771 397.474 320.604C396.483 320.436 395.472 320.502 394.503 320.798C393.535 321.093 392.631 321.612 391.846 322.322C391.061 323.032 390.413 323.918 389.941 324.925C389.469 325.932 389.184 327.039 389.103 328.176C389.022 329.314 389.147 330.458 389.47 331.539Z" fill="black"/>
<path opacity="0.1" d="M409.575 380.32C409.575 380.32 422.479 344.107 446.575 330.674C456.716 325.109 464.998 315.947 470.176 304.564C472.598 299.142 474.578 293.478 476.092 287.645" stroke="#535461" stroke-width="2" stroke-miterlimit="10"/>
<path opacity="0.1" d="M491.224 279.079C488.712 282.674 475.713 287.937 475.713 287.937C475.713 287.937 477.278 272.305 479.79 268.736C481.037 267.157 482.766 266.18 484.624 266.004C486.482 265.827 488.329 266.465 489.789 267.786C491.248 269.108 492.21 271.014 492.477 273.115C492.745 275.217 492.298 277.355 491.229 279.094L491.224 279.079Z" fill="#BDA9EE"/>
<path opacity="0.1" d="M486.772 307.554C482.947 309.019 469.531 305.376 469.531 305.376C469.531 305.376 478.293 293.246 482.119 291.782C483.916 291.239 485.827 291.495 487.465 292.499C489.102 293.502 490.343 295.178 490.936 297.185C491.528 299.192 491.427 301.381 490.654 303.307C489.881 305.233 488.493 306.751 486.772 307.554Z" fill="#BDA9EE"/>
<path opacity="0.1" d="M462.585 341.241C458.636 340.308 448.666 329.449 448.666 329.449C448.666 329.449 461.606 324.015 465.559 324.947C467.348 325.515 468.881 326.836 469.846 328.642C470.812 330.448 471.139 332.605 470.761 334.675C470.383 336.746 469.328 338.575 467.81 339.793C466.292 341.011 464.424 341.527 462.585 341.236V341.241Z" fill="#BDA9EE"/>
<path opacity="0.1" d="M439.244 361.995C435.213 361.833 423.774 353.053 423.774 353.053C423.774 353.053 435.726 345.206 439.757 345.368C441.605 345.582 443.312 346.588 444.533 348.182C445.754 349.777 446.397 351.84 446.332 353.954C446.267 356.068 445.499 358.075 444.183 359.568C442.866 361.061 441.101 361.928 439.244 361.995Z" fill="#BDA9EE"/>
<path opacity="0.1" d="M457.035 295.2C457.552 299.759 466.287 311.91 466.287 311.91C466.287 311.91 472.038 297.633 471.526 293.074C471.463 291.936 471.196 290.824 470.74 289.808C470.285 288.792 469.652 287.893 468.879 287.167C468.106 286.441 467.211 285.903 466.249 285.587C465.286 285.271 464.277 285.183 463.284 285.329C462.29 285.474 461.334 285.851 460.473 286.434C459.612 287.018 458.866 287.797 458.28 288.722C457.694 289.647 457.282 290.7 457.067 291.814C456.853 292.928 456.842 294.081 457.035 295.2Z" fill="#BDA9EE"/>
<path opacity="0.1" d="M430.015 319.877C431.703 324.046 443.234 332.669 443.234 332.669C443.234 332.669 444.973 317.085 443.284 312.916C442.399 311.054 440.923 309.645 439.158 308.976C437.393 308.307 435.471 308.429 433.782 309.316C432.093 310.203 430.763 311.788 430.063 313.751C429.364 315.714 429.346 317.906 430.015 319.883V319.877Z" fill="#BDA9EE"/>
<path opacity="0.1" d="M406.642 348.014C407.686 352.454 417.775 363.167 417.775 363.167C417.775 363.167 421.802 348.145 420.754 343.705C420.155 341.703 418.91 340.035 417.271 339.039C415.632 338.043 413.722 337.793 411.928 338.341C410.133 338.889 408.589 340.193 407.608 341.99C406.626 343.786 406.281 345.939 406.642 348.014Z" fill="#BDA9EE"/>
</g>
<path opacity="0.1" d="M5.42224 224.039C13.3657 262.702 30.1814 296.122 56.757 312.322C111.986 345.988 236.541 328.626 329.501 308.675C376.47 298.631 419.105 270.88 450.542 229.891L5.42224 224.039Z" fill="#BDA9EE"/>
<path opacity="0.1" d="M492.894 42.0546H441.889C440.72 42.0546 439.598 41.5257 438.772 40.5842C437.945 39.6427 437.48 38.3657 437.48 37.0342C437.48 35.7028 437.945 34.4258 438.772 33.4843C439.598 32.5428 440.72 32.0139 441.889 32.0139H450.706C449.537 32.0139 448.416 31.4849 447.589 30.5434C446.762 29.6019 446.298 28.325 446.298 26.9935C446.298 25.662 446.762 24.385 447.589 23.4435C448.416 22.502 449.537 21.9731 450.706 21.9731H444.41C443.241 21.9731 442.12 21.4441 441.293 20.5026C440.466 19.5611 440.002 18.2842 440.002 16.9527C440.002 15.6212 440.466 14.3442 441.293 13.4027C442.12 12.4612 443.241 11.9323 444.41 11.9323H471.032C465.124 8.80593 458.22 6.58102 450.267 5.41385C377.678 -5.20531 351.762 1.81855 342.619 9.06125C331.34 17.9713 318.757 24.5263 305.309 27.6839C260.517 38.1936 176.759 50.8553 100.844 23.6196C63.1126 10.0721 35.0681 32.957 18.2616 71.1818H501.748C501.117 60.0728 499.227 49.8184 495.759 40.8354C494.964 41.6202 493.947 42.0529 492.894 42.0546Z" fill="#BDA9EE"/>
<path opacity="0.1" d="M1.09353 143.343C-0.864632 165.829 -0.198412 188.512 3.07481 210.799L450.889 229.448C463.355 213.118 473.822 194.942 482.004 175.414L1.09353 143.343ZM178.21 191.463H169.392C170.562 191.463 171.683 191.992 172.51 192.933C173.337 193.875 173.801 195.152 173.801 196.483C173.801 197.815 173.337 199.092 172.51 200.033C171.683 200.975 170.562 201.503 169.392 201.503H118.387C117.218 201.503 116.096 200.975 115.27 200.033C114.443 199.092 113.978 197.815 113.978 196.483C113.978 195.152 114.443 193.875 115.27 192.933C116.096 191.992 117.218 191.463 118.387 191.463H127.204C126.035 191.463 124.914 190.934 124.087 189.992C123.26 189.051 122.796 187.774 122.796 186.442C122.796 185.111 123.26 183.834 124.087 182.892C124.914 181.951 126.035 181.422 127.204 181.422H120.908C119.739 181.422 118.618 180.893 117.791 179.951C116.964 179.01 116.5 177.733 116.5 176.401C116.5 175.07 116.964 173.793 117.791 172.852C118.618 171.91 119.739 171.381 120.908 171.381H171.914C173.083 171.381 174.204 171.91 175.031 172.852C175.858 173.793 176.322 175.07 176.322 176.401C176.322 177.733 175.858 179.01 175.031 179.951C174.204 180.893 173.083 181.422 171.914 181.422H178.21C179.379 181.422 180.5 181.951 181.327 182.892C182.154 183.834 182.618 185.111 182.618 186.442C182.618 187.774 182.154 189.051 181.327 189.992C180.5 190.934 179.379 191.463 178.21 191.463Z" fill="#BDA9EE"/>
<path opacity="0.1" d="M501.771 71.5308L12.8624 85.0783C6.91852 102.487 2.99715 122.167 1.16687 142.567H493.205C496.418 130.583 498.794 118.33 500.312 105.921C501.776 93.9311 502.362 82.3323 501.771 71.5308ZM100.423 115.909H91.6056C92.7748 115.909 93.8962 116.438 94.723 117.38C95.5498 118.321 96.0143 119.598 96.0143 120.93C96.0143 122.261 95.5498 123.538 94.723 124.48C93.8962 125.421 92.7748 125.95 91.6056 125.95H40.6002C39.431 125.95 38.3096 125.421 37.4828 124.48C36.656 123.538 36.1916 122.261 36.1916 120.93C36.1916 119.598 36.656 118.321 37.4828 117.38C38.3096 116.438 39.431 115.909 40.6002 115.909H49.4176C48.2484 115.909 47.127 115.38 46.3002 114.439C45.4734 113.497 45.0089 112.22 45.0089 110.889C45.0089 109.557 45.4734 108.28 46.3002 107.339C47.127 106.397 48.2484 105.869 49.4176 105.869H43.1215C41.9522 105.869 40.8308 105.34 40.004 104.398C39.1773 103.457 38.7128 102.18 38.7128 100.848C38.7128 99.5166 39.1773 98.2397 40.004 97.2982C40.8308 96.3567 41.9522 95.8277 43.1215 95.8277H94.1268C95.296 95.8277 96.4174 96.3567 97.2442 97.2982C98.071 98.2397 98.5355 99.5166 98.5355 100.848C98.5355 102.18 98.071 103.457 97.2442 104.398C96.4174 105.34 95.296 105.869 94.1268 105.869H100.423C101.592 105.869 102.714 106.397 103.54 107.339C104.367 108.28 104.832 109.557 104.832 110.889C104.832 112.22 104.367 113.497 103.54 114.439C102.714 115.38 101.592 115.909 100.423 115.909Z" fill="#BDA9EE"/>
<path d="M429.512 422.734C429.512 422.734 409.123 295.388 370.243 274.723C337.298 257.199 301.671 245.387 291.541 242.183C290.028 239.408 288.279 236.809 286.32 234.424C272.474 217.964 264.155 218.271 262.81 218.474C262.171 215.21 261.713 211.904 261.437 208.574C261.396 208.053 261.355 207.569 261.318 207.053L261.437 206.985C261.355 206 261.282 204.984 261.218 203.937C266.87 200.502 272.074 196.186 276.679 191.114C276.738 191.338 276.789 191.562 276.853 191.791C286.831 182.186 296.603 172.321 306.169 162.195C308.915 159.272 311.797 156.099 312.731 151.977C313.03 150.559 313.145 149.098 313.074 147.642C313.198 144.515 312.548 141.321 312.438 138.153C312.438 137.632 312.488 137.148 312.548 136.653C313.188 131.468 316.355 127.211 318.954 122.86C325.447 111.865 328.836 98.8742 328.668 85.6255C328.739 79.2773 327.968 72.9533 326.38 66.8674C324.353 59.1453 320.134 51.0325 313.111 49.3442C310.393 48.6929 307.569 49.0993 304.797 48.8961C293.316 48.0624 284.723 37.4329 275.567 29.643C264.392 20.1817 251.177 14.3409 237.323 12.7399C232.999 12.2189 228.533 12.1824 224.42 13.7456C215.181 17.2471 209.572 28.059 200.672 32.5037C194.092 35.8072 186.487 35.2705 179.624 37.7507C169.406 41.4502 160.735 53.3824 160.506 65.6429C160.506 66.0963 160.506 66.5496 160.506 67.0029C160.506 67.0811 160.506 67.1592 160.506 67.2322C160.392 73.4275 162.337 79.7376 162.492 86.0788C162.492 86.652 162.5 87.2269 162.515 87.8035C162.465 94.6502 161.746 101.518 159.555 107.953C158.374 111.418 156.855 115.43 157.102 118.895C156.965 121.016 157.326 123.006 158.621 124.627L160.831 122.407C160.09 126.975 159.718 131.611 159.719 136.257C159.719 159.673 169.072 180.64 183.824 194.751C183.91 196.31 183.992 197.981 184.071 199.763C184.419 207.485 184.694 217.172 184.616 227.728L163.037 250.316L107.561 278.974C107.561 278.974 56.8257 291.178 67.7524 372.343L72.9687 422.74H119.289L119.183 423.005H187.933L187.974 422.74H351.547L351.514 423.005H357.92V422.74L429.512 422.734ZM263.217 219.767C264.619 223.07 265.723 226.526 266.512 230.084C264.893 226.661 263.696 222.999 262.956 219.204L263.025 219.345L263.217 219.767ZM184.598 230.188C184.598 231.181 184.582 232.183 184.552 233.194L184.442 233.371C184.435 232.299 184.486 231.227 184.598 230.162V230.188Z" fill="url(#paint0_linear)"/>
<path d="M281.314 242.969L272.163 342.491L223.203 360.207C223.203 360.207 159.6 346.66 176.073 307.581C187.791 279.782 187.466 230.104 186.304 203.739C185.847 193.036 185.224 186.174 185.224 186.174C185.224 186.174 268.502 103.326 261.639 177.837C260.312 192.265 260.234 203.546 260.971 212.362C264.059 249.066 281.314 242.969 281.314 242.969Z" fill="#FDC2CC"/>
<path opacity="0.03" d="M281.314 242.969L272.163 342.491L223.203 360.207C223.203 360.207 159.6 346.66 176.073 307.581C187.791 279.782 187.466 230.104 186.304 203.739C185.847 193.036 185.224 186.174 185.224 186.174C185.224 186.174 268.502 103.326 261.639 177.837C260.312 192.265 260.234 203.546 260.971 212.362C264.059 249.066 281.314 242.969 281.314 242.969Z" fill="black"/>
<path opacity="0.1" d="M261.639 176.274C260.312 190.702 260.234 201.983 260.97 210.799C249.214 218.108 235.791 221.196 222.464 219.657C209.138 218.118 196.533 212.024 186.304 202.176C185.847 191.473 185.224 184.611 185.224 184.611C185.224 184.611 268.502 101.763 261.639 176.274Z" fill="black"/>
<path d="M229.151 216.922C265.794 216.922 295.499 183.095 295.499 141.368C295.499 99.6412 265.794 65.8148 229.151 65.8148C192.508 65.8148 162.803 99.6412 162.803 141.368C162.803 183.095 192.508 216.922 229.151 216.922Z" fill="#FDC2CC"/>
<path opacity="0.03" d="M229.151 216.922C265.794 216.922 295.499 183.095 295.499 141.368C295.499 99.6412 265.794 65.8148 229.151 65.8148C192.508 65.8148 162.803 99.6412 162.803 141.368C162.803 183.095 192.508 216.922 229.151 216.922Z" fill="black"/>
<path opacity="0.1" d="M119.792 343.534C119.792 343.534 141.298 393.555 142.441 422.995L119.792 343.534Z" fill="black"/>
<path opacity="0.1" d="M354.068 372.197L347.89 423H354.068V372.197Z" fill="black"/>
<path opacity="0.1" d="M124.596 422.995L158.685 334.676C158.685 334.676 168.294 313.833 170.582 292.991C172.87 272.149 185.224 239.322 185.224 239.322C185.224 239.322 215.882 195.032 230.066 201.285C244.251 207.537 217.712 230.985 217.712 230.985C217.712 230.985 256.605 248.18 230.066 299.244C203.527 350.307 203.07 340.928 203.07 340.928L190.029 422.995H124.596Z" fill="black"/>
<path d="M123.681 422.995L157.77 334.676C157.77 334.676 167.379 313.833 169.667 292.991C171.122 279.74 176.645 261.644 180.475 250.217C182.975 242.747 186.653 235.86 191.328 229.896C201.239 217.266 219.24 196.897 229.151 201.274C243.336 207.527 216.797 230.975 216.797 230.975C216.797 230.975 255.69 248.17 229.151 299.233C202.612 350.297 202.154 340.918 202.154 340.918L189.114 422.984L123.681 422.995Z" fill="#FDC2CC"/>
<path opacity="0.15" d="M249.513 100.465C250.271 100.465 250.886 99.7653 250.886 98.902C250.886 98.0386 250.271 97.3388 249.513 97.3388C248.755 97.3388 248.14 98.0386 248.14 98.902C248.14 99.7653 248.755 100.465 249.513 100.465Z" fill="white"/>
<path opacity="0.15" d="M243.107 103.591C243.865 103.591 244.48 102.892 244.48 102.028C244.48 101.165 243.865 100.465 243.107 100.465C242.349 100.465 241.734 101.165 241.734 102.028C241.734 102.892 242.349 103.591 243.107 103.591Z" fill="white"/>
<path opacity="0.1" d="M182.017 46.1553C188.638 43.7167 195.986 44.243 202.337 41.002C210.926 36.6147 216.339 25.9955 225.253 22.5565C229.224 21.0246 233.535 21.082 237.703 21.5717C251.107 23.1604 263.873 28.904 274.611 38.1779C283.446 45.8322 291.737 56.269 302.815 57.0871C305.492 57.2851 308.215 56.8838 310.836 57.5247C317.627 59.1817 321.695 67.1487 323.648 74.7197C325.909 83.6922 326.439 93.1151 325.202 102.343C323.965 111.57 320.991 120.384 316.483 128.18C313.975 132.453 310.919 136.637 310.301 141.728C309.697 146.719 311.564 151.894 310.475 156.781C309.56 160.83 306.814 163.946 304.142 166.817C294.915 176.755 285.484 186.438 275.851 195.866C270.845 177.754 278.189 158.25 277.045 139.31C276.587 131.932 274.299 123.876 268.584 120.396C263.235 117.144 256.399 118.832 250.986 115.706C244.946 112.241 242.466 104.034 237.9 98.3548C230.121 88.6632 216.618 87.4126 205.742 91.7895C194.865 96.1664 185.975 105.17 177.372 113.95L161.737 129.921C158.685 126.002 161.001 119.989 162.652 115.091C165.114 107.75 165.654 99.8346 165.489 92.0396C165.357 85.7869 163.462 79.6124 163.572 73.5264C163.792 61.5213 172.156 49.787 182.017 46.1553Z" fill="black"/>
<path d="M182.017 44.5921C188.638 42.1535 195.986 42.6798 202.337 39.4388C210.926 35.0515 216.339 24.4324 225.253 20.9934C229.224 19.4615 233.535 19.5188 237.703 20.0086C251.107 21.5972 263.873 27.3408 274.611 36.6147C283.446 44.269 291.737 54.7058 302.815 55.5239C305.492 55.7219 308.215 55.3207 310.836 55.9616C317.627 57.6185 321.695 65.5855 323.648 73.1565C325.909 82.129 326.439 91.5519 325.202 100.779C323.965 110.007 320.991 118.821 316.483 126.617C313.975 130.89 310.919 135.074 310.301 140.165C309.697 145.156 311.564 150.33 310.475 155.218C309.56 159.267 306.814 162.382 304.142 165.253C294.915 175.192 285.484 184.875 275.851 194.302C270.845 176.19 278.189 156.687 277.045 137.747C276.587 130.369 274.299 122.313 268.584 118.832C263.235 115.581 256.399 117.269 250.986 114.143C244.946 110.678 242.466 102.471 237.9 96.7917C230.121 87.1 216.618 85.8494 205.742 90.2263C194.865 94.6032 185.975 103.607 177.372 112.387L161.737 128.357C158.685 124.439 161.001 118.426 162.652 113.528C165.114 106.186 165.654 98.2715 165.489 90.4764C165.357 84.2238 163.462 78.0492 163.572 71.9633C163.792 59.9581 172.156 48.2239 182.017 44.5921Z" fill="#865A61"/>
</g>
<defs>
<linearGradient id="paint0_linear" x1="247.857" y1="422.995" x2="247.857" y2="12.3908" gradientUnits="userSpaceOnUse">
<stop stop-color="#BDA9EE"/>
<stop offset="0.54" stop-color="#BDA9EE"/>
<stop offset="1" stop-color="#BDA9EE" stop-opacity="0.2"/>
</linearGradient>
<clipPath id="clip0">
<rect width="502" height="423" fill="white"/>
</clipPath>
</defs>
</svg>
