<svg width="16" height="16" viewBox="0 0 16 16" fill="none" xmlns="http://www.w3.org/2000/svg">
<g clip-path="url(#clip0)">
<path opacity="0.4" d="M5.03506 11.3322C4.7635 11.0606 4.90506 11.1372 4.25006 10.9619C3.95287 10.8822 3.69162 10.7291 3.45537 10.5456L2.03756 14.0219C1.90037 14.3584 2.15662 14.7241 2.51975 14.7103L4.16631 14.6475L5.29881 15.8438C5.54881 16.1075 5.98756 16.0253 6.12475 15.6888L7.75131 11.7006C7.41256 11.8894 7.03662 12 6.64787 12C6.0385 12 5.466 11.7628 5.03506 11.3322ZM13.9626 14.0219L12.5447 10.5456C12.3085 10.7294 12.0472 10.8822 11.7501 10.9619C11.0916 11.1381 11.236 11.0613 10.9651 11.3322C10.5341 11.7628 9.96131 12 9.35194 12C8.96319 12 8.58725 11.8891 8.2485 11.7006L9.87506 15.6888C10.0122 16.0253 10.4513 16.1075 10.701 15.8438L11.8338 14.6475L13.4804 14.7103C13.8435 14.7241 14.0997 14.3581 13.9626 14.0219ZM10.2188 10.625C10.6963 10.1391 10.751 10.1809 11.431 9.99563C11.8651 9.87719 12.2044 9.53188 12.3207 9.09001C12.5544 8.20251 12.4938 8.3097 13.1316 7.66032C13.4494 7.33688 13.5735 6.86532 13.4572 6.42345C13.2238 5.53657 13.2235 5.66032 13.4572 4.77251C13.5735 4.33063 13.4494 3.85907 13.1316 3.53563C12.4938 2.88626 12.5544 2.99313 12.3207 2.10595C12.2044 1.66407 11.8651 1.31876 11.431 1.20032C10.5597 0.962508 10.6647 1.0247 10.0263 0.375008C9.7085 0.0515703 9.24506 -0.0749922 8.811 0.0434453C7.94006 0.280945 8.06162 0.281258 7.18912 0.0434453C6.75506 -0.0749922 6.29162 0.0512578 5.97381 0.375008C5.336 1.02438 5.441 0.962508 4.56944 1.20032C4.13537 1.31876 3.796 1.66407 3.67975 2.10595C3.44631 2.99313 3.50662 2.88626 2.86881 3.53563C2.551 3.85907 2.42662 4.33063 2.54319 4.77251C2.77662 5.65876 2.77694 5.53501 2.54319 6.42313C2.42694 6.86501 2.551 7.33657 2.86881 7.66032C3.50662 8.3097 3.446 8.20251 3.67975 9.09001C3.796 9.53188 4.13537 9.87719 4.56944 9.99563C5.26881 10.1863 5.321 10.1563 5.78131 10.625C6.19475 11.0459 6.83881 11.1213 7.33569 10.8069C7.53438 10.6807 7.76487 10.6138 8.00022 10.6138C8.23557 10.6138 8.46606 10.6807 8.66475 10.8069C9.16131 11.1213 9.80537 11.0459 10.2188 10.625ZM5.05194 5.49876C5.05194 3.84157 6.37194 2.49813 8.00006 2.49813C9.62819 2.49813 10.9482 3.84157 10.9482 5.49876C10.9482 7.15595 9.62819 8.49938 8.00006 8.49938C6.37194 8.49938 5.05194 7.15595 5.05194 5.49876Z" fill="#9FA2B4"/>
</g>
<defs>
<clipPath id="clip0">
<rect width="16" height="16" fill="white"/>
</clipPath>
</defs>
</svg>
