<svg width="502" height="423" viewBox="0 0 502 423" fill="none" xmlns="http://www.w3.org/2000/svg">
<g clip-path="url(#clip0)">
<path d="M443.857 241.803C441.101 265.827 435.375 285.115 427.516 300.498C417.057 320.994 399.168 329.252 383.188 337.893C378.57 340.385 373.769 342.51 368.829 344.246C339.749 354.516 307.203 351.791 281.638 346.369C263.706 342.563 245.505 340.222 227.207 339.367C221.989 339.128 216.765 339.009 211.535 339.01C203.472 339.021 58.2842 341.825 22.9351 269.004C14.2076 251.04 8.22541 229.097 6.07622 202.349C-0.00530052 126.729 33.4195 77.0635 76.534 44.6008C158.093 -16.8074 269.888 -14.2321 350.244 48.7937C403.77 90.7755 453.886 154.312 443.857 241.803Z" fill="#F2F2F2"/>
<path d="M156.875 219.91C156.875 280.019 121.757 301.007 78.4375 301.007C35.1177 301.007 0 280.019 0 219.91C0 159.802 78.4375 83.3344 78.4375 83.3344C78.4375 83.3344 156.875 159.802 156.875 219.91Z" fill="#BDA9EE"/>
<path d="M75.5803 291.812L76.3835 241.506L109.816 179.272L76.5095 233.615L76.8703 210.996L99.9116 165.969L76.966 205.01L77.6155 164.328L102.289 128.481L77.7174 157.931L78.1232 83.3346L75.573 182.086L75.7827 178.013L50.6973 138.942L75.3805 185.833L73.0431 231.268L72.9735 230.062L44.0547 188.946L72.8857 234.322L72.5934 240.004L72.5411 240.089L72.5651 240.556L66.6353 355.828H74.558L75.5086 296.288L104.269 251.023L75.5803 291.812Z" fill="#3F3D56"/>
<path d="M502 223.635C502 283.744 466.882 304.731 423.562 304.731C380.243 304.731 345.125 283.744 345.125 223.635C345.125 163.527 423.562 87.059 423.562 87.059C423.562 87.059 502 163.527 502 223.635Z" fill="#BDA9EE"/>
<path d="M420.705 295.537L421.509 245.231L454.941 182.996L421.635 237.339L421.995 214.72L445.037 169.694L422.091 208.734L422.741 168.053L447.414 132.206L422.842 161.655L423.248 87.0592L420.698 185.811L420.908 181.737L395.822 142.667L420.506 189.557L418.168 234.992L418.099 233.786L389.18 192.67L418.011 238.047L417.718 243.729L417.666 243.814L417.69 244.281L411.76 359.553H419.683L420.634 300.013L449.394 254.747L420.705 295.537Z" fill="#3F3D56"/>
<path d="M338.85 172.585C338.85 238.304 300.455 261.251 253.092 261.251C205.729 261.251 167.333 238.304 167.333 172.585C167.333 106.867 253.092 23.2621 253.092 23.2621C253.092 23.2621 338.85 106.867 338.85 172.585Z" fill="#BDA9EE"/>
<path d="M249.968 251.198L250.846 196.197L287.398 128.153L250.984 187.569L251.379 162.839L276.57 113.61L251.483 156.294L252.193 111.815L279.169 72.6226L252.305 104.821L252.748 23.2624L249.96 131.231L250.189 126.777L222.763 84.0598L249.749 135.327L247.194 185.003L247.118 183.684L215.5 138.731L247.022 188.342L246.702 194.554L246.645 194.648L246.671 195.158L240.188 321.189H248.85L249.889 256.091L281.334 206.601L249.968 251.198Z" fill="#3F3D56"/>
<path d="M435.067 365.002C435.067 379.108 344.229 423 232.175 423C120.121 423 29.2832 379.108 29.2832 365.002C29.2832 350.897 112.8 319.243 224.854 319.243C336.908 319.243 435.067 350.897 435.067 365.002Z" fill="#3F3D56"/>
<path opacity="0.1" d="M435.067 365.002C435.067 379.108 344.229 423 232.175 423C120.121 423 29.2832 379.108 29.2832 365.002C29.2832 350.897 112.8 319.243 224.854 319.243C336.908 319.243 435.067 350.897 435.067 365.002Z" fill="black"/>
<path d="M435.067 365.002C435.067 379.108 344.229 390.543 232.175 390.543C120.121 390.543 29.2832 379.108 29.2832 365.002C29.2832 350.897 112.8 319.243 224.854 319.243C336.908 319.243 435.067 350.897 435.067 365.002Z" fill="#3F3D56"/>
<path d="M300.378 294.278C300.378 314.512 312.854 330.886 328.271 330.886L300.378 294.278Z" fill="#3F3D56"/>
<path d="M328.271 330.886C328.271 310.424 342.193 293.866 359.398 293.866L328.271 330.886Z" fill="#BDA9EE"/>
<path d="M310.484 296.112C310.484 315.333 318.44 330.886 328.271 330.886L310.484 296.112Z" fill="#BDA9EE"/>
<path d="M328.271 330.886C328.271 304.74 344.363 283.583 364.249 283.583L328.271 330.886Z" fill="#3F3D56"/>
<path d="M322.403 331.144C322.403 331.144 326.359 331.02 327.551 330.156C328.743 329.293 333.636 328.261 333.932 329.647C334.227 331.032 339.876 336.537 335.41 336.573C330.944 336.61 325.034 335.865 323.844 335.128C322.654 334.39 322.403 331.144 322.403 331.144Z" fill="#A8A8A8"/>
<path opacity="0.2" d="M335.49 336.091C331.024 336.128 325.113 335.383 323.923 334.646C323.017 334.084 322.656 332.069 322.535 331.139C322.452 331.143 322.403 331.144 322.403 331.144C322.403 331.144 322.654 334.39 323.844 335.128C325.034 335.865 330.944 336.61 335.41 336.573C336.699 336.563 337.145 336.096 337.12 335.405C336.941 335.822 336.449 336.083 335.49 336.091Z" fill="black"/>
<path opacity="0.1" d="M234.79 373.516C272.911 373.516 303.815 368.513 303.815 362.342C303.815 356.171 272.911 351.168 234.79 351.168C196.668 351.168 165.765 356.171 165.765 362.342C165.765 368.513 196.668 373.516 234.79 373.516Z" fill="black"/>
<path d="M265.119 337.334H258.321V353.296H265.119V337.334Z" fill="#FFB9B9"/>
<path d="M265.642 121.838H239.496V169.726H265.642V121.838Z" fill="#FF6584"/>
<path d="M284.844 212.469L285.748 219.836L261.919 227.202L258.902 213.697L284.844 212.469Z" fill="#FFB9B9"/>
<path d="M249.551 141.567C249.551 141.567 248.948 147.092 247.741 147.092C246.534 147.092 242.311 149.24 242.311 149.24L241.105 155.072L249.551 160.29L263.427 158.755L267.348 152.617L263.427 148.627C263.427 148.627 260.108 141.26 261.315 139.725C262.522 138.191 249.551 141.567 249.551 141.567Z" fill="#FFB9B9"/>
<path opacity="0.1" d="M249.551 141.567C249.551 141.567 248.948 147.092 247.741 147.092C246.534 147.092 242.311 149.24 242.311 149.24L241.105 155.072L249.551 160.29L263.427 158.755L267.348 152.617L263.427 148.627C263.427 148.627 260.108 141.26 261.315 139.725C262.522 138.191 249.551 141.567 249.551 141.567Z" fill="black"/>
<path d="M211.845 332.789C211.845 332.789 209.13 351.205 205.812 352.433C202.494 353.66 218.481 355.809 218.481 355.809L219.688 349.056C219.688 349.056 219.989 336.779 221.196 334.937C222.402 333.096 211.845 332.789 211.845 332.789Z" fill="#FFB9B9"/>
<path d="M242.613 225.668C242.613 225.668 286.352 217.687 286.654 216.153C286.955 214.618 295.703 227.816 290.273 253.599C284.844 279.382 271.27 340.155 271.27 340.155C271.27 340.155 257.394 344.452 257.696 341.076C257.997 337.7 262.522 279.075 262.522 279.075L259.505 254.213L254.377 257.282L232.961 300.253L222.101 337.393C222.101 337.393 208.226 339.848 210.337 334.63C212.449 329.412 219.386 288.897 219.386 288.897L238.39 231.806C238.39 231.806 237.787 225.668 242.613 225.668Z" fill="#2F2E41"/>
<path d="M253.623 145.711C260.62 145.711 266.292 139.939 266.292 132.819C266.292 125.7 260.62 119.928 253.623 119.928C246.626 119.928 240.954 125.7 240.954 132.819C240.954 139.939 246.626 145.711 253.623 145.711Z" fill="#FFB9B9"/>
<path d="M266.745 148.934C266.745 148.934 260.712 154.765 246.534 153.231C232.357 151.696 250.456 186.073 250.456 186.073L256.187 220.757C256.187 220.757 281.525 217.687 282.43 211.856C283.335 206.024 266.745 148.934 266.745 148.934Z" fill="#F2F2F2"/>
<path d="M260.712 181.776C260.712 181.776 253.472 178.093 250.757 167.964C248.043 157.835 245.629 147.399 244.121 147.706C242.848 147.965 231.037 152.6 227.209 155.7C226.504 156.271 226.069 156.791 226.022 157.221C225.721 159.983 236.882 187.608 236.882 187.608C236.882 187.608 245.629 207.558 242.01 214.004C238.39 220.45 238.088 228.737 244.724 228.123C251.361 227.509 273.381 226.282 270.364 209.093C270.364 209.093 276.096 221.064 292.083 212.469C292.083 212.469 301.736 210.935 301.434 207.558C301.132 204.182 286.05 175.023 286.05 175.023C286.05 175.023 283.637 162.132 288.162 157.221L277.906 144.943C277.906 144.943 275.492 141.26 273.079 143.102C270.666 144.943 265.236 148.013 264.331 148.32C263.427 148.627 262.832 147.216 262.832 147.216C260.742 151.664 259.903 156.615 260.41 161.518C261.315 169.498 260.712 181.776 260.712 181.776Z" fill="#2F2E41"/>
<path d="M212.75 348.749C212.75 348.749 212.077 346.601 208.19 348.749C208.19 348.749 209.432 341.997 205.209 341.997C200.986 341.997 199.478 349.977 199.478 349.977C199.478 349.977 198.271 355.195 190.127 357.344C181.982 359.492 188.317 366.859 194.048 366.859C199.779 366.859 207.32 362.255 207.32 362.255C207.32 362.255 223.006 362.562 223.308 359.492C223.609 356.423 221.799 347.215 220.593 347.215C219.386 347.215 216.973 351.512 216.973 351.512L212.75 348.749Z" fill="#2F2E41"/>
<path d="M264.03 343.348C264.03 343.348 259.807 338.744 257.394 346.417C254.98 354.09 253.17 357.16 254.679 358.388C256.187 359.615 257.394 359.001 256.79 361.457C256.187 363.912 258.6 369.13 264.03 369.13C269.459 369.13 270.968 365.14 270.666 362.378C270.364 359.615 267.951 356.239 267.951 356.239L265.538 347.645L264.03 343.348Z" fill="#2F2E41"/>
<path d="M287.86 127.448L271.873 132.973C271.873 132.973 257.394 141.567 263.728 143.409C270.063 145.25 275.492 137.884 275.492 137.884L289.368 134.201L287.86 127.448Z" fill="#FFB9B9"/>
<path d="M245.003 112.885C243.105 114.208 241.594 116.02 240.157 117.849C237.238 121.564 234.378 126.002 235.097 130.702C235.37 132.488 236.15 134.149 236.589 135.9C237.181 138.262 237.142 140.735 237.1 143.173C237.135 144.209 237.009 145.244 236.726 146.24C236.303 147.21 235.806 148.145 235.239 149.036C233.787 151.789 233.751 155.061 233.75 158.186C233.68 159.238 233.821 160.293 234.163 161.289C234.56 162.228 235.298 162.965 235.911 163.776C236.926 165.146 237.603 166.744 237.886 168.435C238.169 170.126 238.049 171.862 237.536 173.496C238.323 173.5 239.095 173.275 239.761 172.848C240.427 172.42 240.96 171.809 241.296 171.084C241.401 171.863 241.335 172.656 241.103 173.406C240.871 174.156 240.479 174.844 239.956 175.422C243.409 174.378 247.11 172.617 248.371 169.184C248.74 168.017 248.949 166.803 248.99 165.578C249.661 156.965 250.044 148.03 247.008 139.96C246.036 137.379 244.715 134.88 244.389 132.136C244.063 129.391 245.059 126.22 247.537 125.086C247.594 125.789 247.901 126.446 248.399 126.936C248.951 127.353 249.971 127.091 249.981 126.392L251.178 128.088C251.637 127.859 252.029 127.511 252.314 127.079L253.135 128.101L254.88 126.809L256.395 128.472C256.979 128.134 257.444 127.619 257.726 126.999C258.051 127.495 258.455 128.039 259.038 128.093C260.309 128.21 260.571 126.158 261.681 125.518C262.091 125.333 262.553 125.305 262.982 125.437C263.411 125.569 263.779 125.854 264.019 126.239C264.477 127.031 264.644 127.963 264.49 128.869C264.031 133.089 260.492 136.941 261.541 141.051C262.131 143.362 264.118 145.215 264.268 147.598C264.388 149.502 263.288 151.304 263.305 153.212C263.324 155.448 264.843 157.347 266.325 158.998C268.963 161.937 271.74 164.738 274.656 167.401L273.755 165.798C274.175 165.764 274.598 165.823 274.994 165.971C275.39 166.12 275.749 166.353 276.048 166.656C276.307 165.734 275.878 164.774 275.473 163.909C273.048 158.727 271.09 153.209 270.798 147.478C270.391 139.511 273.206 131.419 271.422 123.651C270.396 119.301 268.004 115.41 264.609 112.568C262.959 111.186 261.708 110.358 259.571 110.206C257.182 109.995 254.779 110.014 252.394 110.263C249.759 110.518 247.223 111.418 245.003 112.885Z" fill="#FF6584"/>
<path d="M275.492 145.25C275.492 145.25 278.811 145.557 280.319 145.25C281.827 144.943 283.939 143.409 283.939 143.409L295.401 134.814L285.447 136.349C285.447 136.349 287.257 122.23 286.653 121.923C286.05 121.616 315.913 115.784 315.31 125.299C314.706 134.814 297.814 153.538 288.162 157.221L281.827 158.142L275.492 145.25Z" fill="#2F2E41"/>
<path d="M307.998 254.067H165.765V288.121H307.998V254.067Z" fill="white"/>
<path d="M289.434 261.782H183.805V279.873H289.434V261.782Z" fill="#3F3D56"/>
<path d="M208.352 270.431C208.31 269.967 206.294 269.761 203.527 269.877C205.13 267.579 206.059 265.746 205.699 265.458C205.361 265.185 203.974 266.363 202.285 268.276C202.126 265.71 201.755 263.911 201.323 263.911C200.852 263.911 200.454 266.051 200.323 268.993C197.973 267.274 196.076 266.264 195.784 266.641C195.505 267 196.775 268.517 198.794 270.331C196.129 270.733 194.252 271.301 194.294 271.757C194.336 272.221 196.353 272.427 199.119 272.311C197.516 274.608 196.588 276.441 196.947 276.73C197.286 277.003 198.672 275.825 200.361 273.912C200.521 276.478 200.891 278.277 201.323 278.277C201.794 278.277 202.192 276.137 202.323 273.195C204.673 274.914 206.57 275.923 206.862 275.547C207.141 275.188 205.871 273.671 203.852 271.857C206.517 271.454 208.394 270.887 208.352 270.431Z" fill="white"/>
<path d="M226.131 270.431C226.089 269.967 224.073 269.761 221.306 269.877C222.909 267.579 223.838 265.746 223.479 265.458C223.14 265.185 221.753 266.363 220.064 268.276C219.905 265.71 219.534 263.911 219.102 263.911C218.631 263.911 218.233 266.051 218.102 268.993C215.753 267.274 213.855 266.264 213.563 266.641C213.284 267 214.554 268.517 216.573 270.331C213.909 270.733 212.031 271.301 212.073 271.757C212.115 272.221 214.132 272.427 216.898 272.311C215.295 274.608 214.367 276.441 214.726 276.73C215.065 277.003 216.452 275.825 218.14 273.912C218.3 276.478 218.67 278.277 219.102 278.277C219.573 278.277 219.971 276.137 220.102 273.195C222.452 274.914 224.349 275.923 224.641 275.547C224.92 275.188 223.65 273.671 221.631 271.857C224.296 271.454 226.173 270.887 226.131 270.431Z" fill="white"/>
<path d="M243.91 270.431C243.868 269.967 241.852 269.761 239.085 269.877C240.688 267.579 241.617 265.746 241.258 265.458C240.919 265.185 239.532 266.363 237.843 268.276C237.684 265.71 237.313 263.911 236.881 263.911C236.41 263.911 236.012 266.051 235.881 268.993C233.532 267.274 231.634 266.264 231.342 266.641C231.063 267 232.333 268.517 234.352 270.331C231.688 270.733 229.81 271.301 229.852 271.757C229.894 272.221 231.911 272.427 234.677 272.311C233.074 274.608 232.146 276.441 232.505 276.73C232.844 277.003 234.231 275.825 235.919 273.912C236.079 276.478 236.449 278.277 236.881 278.277C237.352 278.277 237.75 276.137 237.881 273.195C240.231 274.914 242.128 275.923 242.42 275.547C242.699 275.188 241.429 273.671 239.411 271.857C242.075 271.454 243.952 270.887 243.91 270.431Z" fill="white"/>
<path d="M261.69 270.431C261.648 269.967 259.631 269.761 256.864 269.877C258.468 267.579 259.396 265.746 259.037 265.458C258.698 265.185 257.311 266.363 255.623 268.276C255.463 265.71 255.092 263.911 254.661 263.911C254.189 263.911 253.791 266.051 253.66 268.993C251.311 267.274 249.414 266.264 249.121 266.641C248.843 267 250.112 268.517 252.131 270.331C249.467 270.733 247.59 271.301 247.631 271.757C247.674 272.221 249.69 272.427 252.457 272.311C250.854 274.608 249.925 276.441 250.284 276.73C250.623 277.003 252.01 275.825 253.698 273.912C253.858 276.478 254.229 278.277 254.661 278.277C255.132 278.277 255.53 276.137 255.661 273.195C258.01 274.914 259.908 275.923 260.2 275.547C260.479 275.188 259.209 273.671 257.19 271.857C259.854 271.454 261.731 270.887 261.69 270.431Z" fill="white"/>
<path d="M279.469 270.431C279.427 269.967 277.41 269.761 274.643 269.877C276.247 267.579 277.175 265.746 276.816 265.458C276.477 265.185 275.09 266.363 273.402 268.276C273.242 265.71 272.871 263.911 272.44 263.911C271.969 263.911 271.57 266.051 271.439 268.993C269.09 267.274 267.193 266.264 266.9 266.641C266.622 267 267.892 268.517 269.91 270.331C267.246 270.733 265.369 271.301 265.41 271.757C265.453 272.221 267.469 272.427 270.236 272.311C268.633 274.608 267.704 276.441 268.063 276.73C268.402 277.003 269.789 275.825 271.478 273.912C271.637 276.478 272.008 278.277 272.44 278.277C272.911 278.277 273.309 276.137 273.44 273.195C275.789 274.914 277.687 275.923 277.979 275.547C278.258 275.188 276.988 273.671 274.969 271.857C277.633 271.454 279.51 270.887 279.469 270.431Z" fill="white"/>
<path d="M224.213 239.48C224.213 239.48 222.704 259.738 229.944 260.658C237.183 261.579 230.547 237.638 230.547 237.638L224.213 239.48Z" fill="#FFB9B9"/>
<path d="M228.134 156.607L226.022 157.221C226.022 157.221 217.275 228.43 223.006 242.242C223.006 242.242 229.039 238.866 232.055 239.48L236.882 181.469L228.134 156.607Z" fill="#2F2E41"/>
</g>
<defs>
<clipPath id="clip0">
<rect width="502" height="423" fill="white"/>
</clipPath>
</defs>
</svg>
